<mxfile host="app.diagrams.net" modified="2021-10-07T08:21:08.902Z" agent="5.0 (Macintosh)" etag="oOM1PS7QPIKGlw0LzVDW" version="15.4.3" type="github">
  <diagram id="yIQV1erxnWg55_m4gKUz" name="Page-1">
    <mxGraphModel dx="946" dy="612" grid="1" gridSize="10" guides="1" tooltips="1" connect="1" arrows="1" fold="1" page="1" pageScale="1" pageWidth="827" pageHeight="1169" math="0" shadow="0">
      <root>
        <mxCell id="0" />
        <mxCell id="1" parent="0" />
      </root>
    </mxGraphModel>
  </diagram>
</mxfile>
